<svg width="34" height="30" viewBox="0 0 34 34" fill="none" xmlns="http://www.w3.org/2000/svg">
<path d="M0 5C0 2.23858 2.23858 0 5 0H29C31.7614 0 34 2.23858 34 5V29C34 31.7614 31.7614 34 29 34H5C2.23858 34 0 31.7614 0 29V5Z" fill="white"/>
<path d="M24 18H18V24H16V18H10V16H16V10H18V16H24V18Z" fill="#5D5FEF"/>
<path d="M5 1H29V-1H5V1ZM33 5V29H35V5H33ZM29 33H5V35H29V33ZM1 29V5H-1V29H1ZM5 33C2.79086 33 1 31.2091 1 29H-1C-1 32.3137 1.68629 35 5 35V33ZM33 29C33 31.2091 31.2091 33 29 33V35C32.3137 35 35 32.3137 35 29H33ZM29 1C31.2091 1 33 2.79086 33 5H35C35 1.68629 32.3137 -1 29 -1V1ZM5 -1C1.68629 -1 -1 1.68629 -1 5H1C1 2.79086 2.79086 1 5 1V-1Z" fill="#5D5FEF"/>
</svg>
