<svg width="25" height="25" viewBox="0 0 35 42" fill="none" xmlns="http://www.w3.org/2000/svg">
<path d="M11.6667 18.9H7.77778V23.1H11.6667V18.9ZM19.4444 18.9H15.5556V23.1H19.4444V18.9ZM27.2222 18.9H23.3333V23.1H27.2222V18.9ZM31.1111 4.2H29.1667V0H25.2778V4.2H9.72222V0H5.83333V4.2H3.88889C2.85749 4.2 1.86834 4.6425 1.13903 5.43015C0.409721 6.2178 0 7.28609 0 8.4V37.8C0 38.9139 0.409721 39.9822 1.13903 40.7698C1.86834 41.5575 2.85749 42 3.88889 42H31.1111C32.1425 42 33.1317 41.5575 33.861 40.7698C34.5903 39.9822 35 38.9139 35 37.8V8.4C35 7.28609 34.5903 6.2178 33.861 5.43015C33.1317 4.6425 32.1425 4.2 31.1111 4.2ZM31.1111 37.8H3.88889V14.7H31.1111V37.8Z" fill="#3367D5"/>
</svg>
