<svg width="15" height="15" viewBox="0 0 24 24" fill="none" xmlns="http://www.w3.org/2000/svg">
<path fill-rule="evenodd" clip-rule="evenodd" d="M21.6 19.938C21.6 20.0664 21.564 20.1852 21.5268 20.3016C21.2676 16.7688 19.1016 13.7784 16.05 12.3396C17.2416 11.2428 18 9.68519 18 7.93799C18 5.44079 16.4736 3.3036 14.304 2.4H20.4C21.0624 2.4 21.6 2.47559 21.6 3.13799V19.938ZM19.1556 21.6H4.77001C4.76881 21.6 4.76279 21.2891 4.76279 21.2411C4.76279 17.5259 7.59119 14.352 11.2068 13.974C12 14.0796 12.306 13.9463 12.7476 13.8911C16.35 14.2823 19.1628 17.5476 19.1628 21.252C19.1628 21.3 19.1568 21.6 19.1556 21.6ZM2.4 19.938V3.13799C2.4 2.47559 2.9376 2.4 3.6 2.4H9.69598C7.52638 3.3036 6 5.44079 6 7.93799C6 9.67199 6.74639 11.2211 7.92239 12.3167C4.92839 13.7063 2.76839 16.5841 2.41439 20.0101C2.41319 19.9849 2.4 19.9632 2.4 19.938ZM15.6 7.93799C15.6 9.66599 14.3748 11.1121 12.7476 11.4577C12.0396 11.4001 11.8416 11.4095 11.2416 11.4539C9.62041 11.1047 8.4 9.66239 8.4 7.93799C8.4 5.95319 10.0152 4.33799 12 4.33799C13.9848 4.33799 15.6 5.95319 15.6 7.93799ZM21.6 0H2.4C1.074 0 0 1.074 0 2.4V21.6C0 22.9248 1.074 24 2.4 24H21.6C22.926 24 24 22.9248 24 21.6V2.4C24 1.074 22.926 0 21.6 0Z" fill="#A8A8A8"/>
</svg>
