<svg width="25" height="25" viewBox="0 0 32 32" fill="none" xmlns="http://www.w3.org/2000/svg">
<path d="M27.0081 5.94862C26.6007 5.42271 25.9613 5.34515 25.4851 5.76411C23.6911 7.34287 14.693 15.2816 13.726 16.5301C12.3236 18.3409 12.3236 21.2869 13.726 23.0976C14.4272 24.0029 15.3483 24.4556 16.2693 24.4556C17.1903 24.4556 18.1114 24.0029 18.8126 23.0976C19.7796 21.8491 25.9283 10.2313 27.1511 7.91514C27.4755 7.30037 27.4155 6.4747 27.0081 5.94862ZM17.117 20.9084C16.6496 21.5121 15.8889 21.5121 15.4215 20.9084C14.9541 20.305 14.954 19.3232 15.4213 18.7196C15.797 18.2402 18.3518 15.8878 21.495 13.0669C19.3102 17.1252 17.4882 20.4235 17.117 20.9084Z" fill="#3367D5"/>
<path d="M6.45197 27.0137L4.9719 27.9459C3.88892 25.4504 3.32093 22.6651 3.32093 19.8138C3.32093 17.7248 3.61928 15.724 4.16377 13.8787L5.8597 14.929C6.02695 15.0326 6.20349 15.0816 6.3774 15.0816C6.82417 15.0816 7.25308 14.7577 7.45924 14.2028C7.74554 13.432 7.49377 12.5073 6.89671 12.1376L5.2223 11.1006C7.30344 6.71836 10.9042 3.66308 15.0704 3.16696V5.49516C15.0704 6.3501 15.6071 7.04312 16.2693 7.04312C16.9315 7.04312 17.4682 6.3501 17.4682 5.49516V3.1658C18.8966 3.33368 20.2787 3.80333 21.5908 4.56802C22.1941 4.91979 22.9043 4.57312 23.1768 3.79411C23.4492 3.01487 23.1808 2.0981 22.5773 1.74633C20.5891 0.587603 18.4668 0 16.2693 0C12.1701 0 8.31641 2.06095 5.41784 5.80328C2.5194 9.5457 0.923096 14.5214 0.923096 19.8138C0.923096 23.7247 1.82216 27.5284 3.52313 30.8132C3.75224 31.2555 4.13104 31.501 4.52057 31.501C4.69765 31.501 4.87701 31.4503 5.04552 31.3442L7.5033 29.7962C8.09844 29.4214 8.34554 28.4947 8.05522 27.7263C7.7649 26.9579 7.04711 26.639 6.45197 27.0137Z" fill="#3367D5"/>
<path d="M30.2629 11.6695C29.9905 10.8903 29.2805 10.5436 28.6768 10.8955C28.0733 11.2473 27.805 12.164 28.0774 12.9432C28.8341 15.1071 29.2177 17.4187 29.2177 19.8139C29.2177 22.6694 28.6478 25.4592 27.5616 27.9575L26.0164 27.0074C25.4187 26.64 24.7032 26.9676 24.4185 27.7396C24.1338 28.5114 24.3877 29.4351 24.9855 29.8027L27.5033 31.3506C27.6689 31.4524 27.8445 31.5011 28.0181 31.5011C28.4077 31.5011 28.7866 31.2553 29.0154 30.8133C30.7164 27.5284 31.6155 23.7248 31.6155 19.8139C31.6155 16.9765 31.1604 14.2364 30.2629 11.6695Z" fill="#3367D5"/>
</svg>
