<svg width="15" height="15" viewBox="0 0 24 24" fill="none" xmlns="http://www.w3.org/2000/svg">
<g clip-path="url(#clip0)">
<path fill-rule="evenodd" clip-rule="evenodd" d="M21.6 3H12L10.308 0.885C9.852 0.315 9.24 0 8.604 0H2.4C1.08 0 0.012 1.35 0.012 3L0 21C0 22.65 1.08 24 2.4 24H21.6C22.92 24 24 22.65 24 21V6C24 4.35 22.92 3 21.6 3ZM20.4 21H3.6C2.94 21 2.4 20.325 2.4 19.5V7.5C2.4 6.675 2.94 6 3.6 6H20.4C21.06 6 21.6 6.675 21.6 7.5V19.5C21.6 20.325 21.06 21 20.4 21Z" fill="#A8A8A8"/>
</g>
<defs>
<clipPath id="clip0">
<rect width="24" height="24" fill="white"/>
</clipPath>
</defs>
</svg>
