<svg width="25" height="25" viewBox="0 0 38 42" fill="none" xmlns="http://www.w3.org/2000/svg">
<mask id="path-1-inside-1" fill="white">
<path fill-rule="evenodd" clip-rule="evenodd" d="M38 23.2105L19 0L0 23.2105H5.83626V41.9995H32.1634V23.2105H38Z"/>
</mask>
<path d="M19 0L22.0952 -2.53372L19 -6.31483L15.9048 -2.53372L19 0ZM38 23.2105V27.2105H46.4437L41.0952 20.6768L38 23.2105ZM0 23.2105L-3.0952 20.6768L-8.44368 27.2105H0V23.2105ZM5.83626 23.2105H9.83626V19.2105H5.83626V23.2105ZM5.83626 41.9995H1.83626V45.9995H5.83626V41.9995ZM32.1634 41.9995V45.9995H36.1634V41.9995H32.1634ZM32.1634 23.2105V19.2105H28.1634V23.2105H32.1634ZM15.9048 2.53372L34.9048 25.7442L41.0952 20.6768L22.0952 -2.53372L15.9048 2.53372ZM3.0952 25.7442L22.0952 2.53372L15.9048 -2.53372L-3.0952 20.6768L3.0952 25.7442ZM5.83626 19.2105H0V27.2105H5.83626V19.2105ZM9.83626 41.9995V23.2105H1.83626V41.9995H9.83626ZM32.1634 37.9995H5.83626V45.9995H32.1634V37.9995ZM28.1634 23.2105V41.9995H36.1634V23.2105H28.1634ZM38 19.2105H32.1634V27.2105H38V19.2105Z" fill="#3367D5" mask="url(#path-1-inside-1)"/>
</svg>
