   <svg width="32" height="32" viewBox="0 0 32 32" fill="none" xmlns="http://www.w3.org/2000/svg">
                <mask id="mask0" mask-type="alpha" maskUnits="userSpaceOnUse" x="0" y="13" width="10" height="13">
                    <path d="M0 13.097H9.92273V25.0325H0V13.097Z" fill="white" />
                </mask>
                <g mask="url(#mask0)">
                    <path fill-rule="evenodd" clip-rule="evenodd"
                        d="M9.92271 16.288L1.17482 25.0325C0.680669 23.2131 0.330342 21.282 0.150556 19.2725C0.0491907 18.2023 -0.00012207 17.1092 -0.00012207 15.9997C-0.00012207 15.0182 0.0392597 14.0494 0.121105 13.097C3.74046 13.2248 7.10161 14.3833 9.92271 16.288Z"
                        fill="#6633FF" />
                </g>
                <mask id="mask1" mask-type="alpha" maskUnits="userSpaceOnUse" x="5" y="21" width="14" height="11">
                    <path d="M5.88403 21.3768H18.2187V32H5.88403V21.3768Z" fill="white" />
                </mask>
                <g mask="url(#mask1)">
                    <path fill-rule="evenodd" clip-rule="evenodd"
                        d="M18.2187 31.8559V31.9312C17.489 31.9771 16.7493 32.0001 16 32.0001C14.8905 32.0001 13.7977 31.9507 12.7275 31.8494C10.3807 31.6401 8.14215 31.2015 6.06416 30.5635C6.00184 30.5436 5.94293 30.5272 5.88403 30.5076L15.0151 21.3768C17.0376 24.3716 18.2187 27.9779 18.2187 31.8559Z"
                        fill="#6633FF" />
                </g>
                <path fill-rule="evenodd" clip-rule="evenodd"
                    d="M25.7526 11.8077C24.8886 12.6714 23.7561 13.1002 22.6237 13.1002C21.4884 13.1002 20.356 12.6714 19.492 11.8077C17.7674 10.0828 17.7674 7.27505 19.492 5.55046C21.22 3.82245 24.0277 3.82245 25.7526 5.55046C27.4772 7.27505 27.4772 10.0828 25.7526 11.8077ZM29.3162 2.68653C25.5071 0.987974 20.9251 0 16 0C11.0749 0 6.49289 0.987974 2.68348 2.68653C2.2222 3.72416 1.81297 4.81727 1.46265 5.96277C7.68736 6.44357 13.3066 9.13079 17.5383 13.2443C17.5479 13.2508 17.5578 13.2608 17.5708 13.2738C17.7249 13.421 17.8787 13.5748 18.029 13.732C18.0389 13.7416 18.0489 13.7518 18.0585 13.7649C22.3685 18.1928 25.1109 24.1456 25.3924 30.7234C26.7704 30.3344 28.0827 29.8632 29.3131 29.3132C31.0116 25.5038 31.9999 20.9252 31.9999 15.9997C31.9999 11.0745 31.0116 6.49597 29.3162 2.68653Z"
                    fill="#6633FF" />
            </svg>