<svg width="34" height="30" viewBox="0 0 46 32" fill="none" xmlns="http://www.w3.org/2000/svg">
<g clip-path="url(#clip0)">
<path d="M25.8751 5.57333C25.3461 5.57333 24.9167 5.27467 24.9167 4.90667V2.66667C24.9167 1.932 24.0562 1.33333 23.0001 1.33333C21.944 1.33333 21.0834 1.932 21.0834 2.66667V4.90667C21.0834 5.27467 20.6541 5.57333 20.1251 5.57333C19.5961 5.57333 19.1667 5.276 19.1667 4.90667V2.66667C19.1667 1.196 20.886 0 23.0001 0C25.1142 0 26.8334 1.196 26.8334 2.66667V4.90667C26.8334 5.276 26.4041 5.57333 25.8751 5.57333Z" fill="#6633FF"/>
<path d="M23.0001 32C19.3009 32 16.2917 29.9067 16.2917 27.3334C16.2917 26.9654 16.7211 26.6667 17.2501 26.6667C17.7791 26.6667 18.2084 26.9654 18.2084 27.3334C18.2084 29.1707 20.3589 30.6667 23.0001 30.6667C25.6412 30.6667 27.7917 29.1707 27.7917 27.3334C27.7917 26.9654 28.2211 26.6667 28.7501 26.6667C29.2791 26.6667 29.7084 26.9654 29.7084 27.3334C29.7084 29.9067 26.6992 32 23.0001 32Z" fill="#6633FF"/>
<path d="M39.2918 28H6.7085C5.12341 28 3.8335 27.1027 3.8335 26C3.8335 25.4147 4.19958 24.8613 4.83975 24.48C7.86041 22.704 9.5835 20.12 9.5835 17.384V13.3333C9.5835 8.18667 15.6018 4 23.0002 4C30.3985 4 36.4168 8.18667 36.4168 13.3333V17.384C36.4168 20.1213 38.1399 22.704 41.1452 24.4707C41.8007 24.8613 42.1668 25.4147 42.1668 26C42.1668 27.1027 40.8788 28 39.2918 28ZM23.0002 5.33333C16.6579 5.33333 11.5002 8.92133 11.5002 13.3333V17.384C11.5002 20.5147 9.52983 23.468 6.09325 25.4893C5.87283 25.62 5.75016 25.8053 5.75016 26C5.75016 26.368 6.1795 26.6667 6.7085 26.6667H39.2918C39.8208 26.6667 40.2502 26.368 40.2502 26C40.2502 25.8053 40.1275 25.62 39.9147 25.4933C36.4724 23.468 34.5002 20.5133 34.5002 17.384V13.3333C34.5002 8.92133 29.3424 5.33333 23.0002 5.33333Z" fill="#6633FF"/>
</g>
<defs>
<clipPath id="clip0">
<rect width="46" height="32" fill="white"/>
</clipPath>
</defs>
</svg>
