<svg width="25" height="25" viewBox="0 0 32 32" fill="none" xmlns="http://www.w3.org/2000/svg">
<g clip-path="url(#clip0)">
<path d="M1.17603 7.401H8.57903V0H1.17603V7.401ZM2.46603 1.29H7.28803V6.112H2.46603V1.29Z" fill="#3367D5"/>
<path d="M1.17603 15.504H8.57903V8.10095H1.17603V15.504ZM2.46603 9.39195H7.28803V14.213H2.46603V9.39195Z" fill="#3367D5"/>
<path d="M1.17603 23.573H8.57903V16.17H1.17603V23.573ZM2.46603 17.46H7.28803V22.282H2.46603V17.46Z" fill="#3367D5"/>
<path d="M1.17603 31.646H8.57903V24.243H1.17603V31.646ZM2.46603 25.533H7.28803V30.355H2.46603V25.533Z" fill="#3367D5"/>
<path d="M29.986 1.48804H10.563V2.93804H29.986V1.48804Z" fill="#3367D5"/>
<path d="M24.506 4.06702H10.563V5.51802H24.506V4.06702Z" fill="#3367D5"/>
<path d="M29.986 9.146H10.563V10.596H29.986V9.146Z" fill="#3367D5"/>
<path d="M24.506 11.725H10.563V13.175H24.506V11.725Z" fill="#3367D5"/>
<path d="M30.471 17.4449H11.046V18.8959H30.471V17.4449Z" fill="#3367D5"/>
<path d="M24.99 20.025H11.046V21.476H24.99V20.025Z" fill="#3367D5"/>
<path d="M30.471 25.3459H11.046V26.7959H30.471V25.3459Z" fill="#3367D5"/>
<path d="M24.99 27.925H11.046V29.376H24.99V27.925Z" fill="#3367D5"/>
</g>
<defs>
<clipPath id="clip0">
<rect width="31.646" height="31.646" fill="white"/>
</clipPath>
</defs>
</svg>
