<svg width="15" height="15" viewBox="0 0 34 25" fill="none" xmlns="http://www.w3.org/2000/svg">
<path d="M24.2996 15.7233H22.7639L22.2196 15.3373C24.1246 13.7078 25.2716 11.5923 25.2716 9.29102C25.2716 4.15952 19.6146 0 12.6358 0C5.65695 0 0 4.15952 0 9.29102C0 14.4225 5.65695 18.582 12.6358 18.582C15.7656 18.582 18.6427 17.7387 20.8588 16.3379L21.3836 16.7381V17.8674L31.1035 25L34 22.8702L24.2996 15.7233ZM12.6358 15.7233C7.79531 15.7233 3.88794 12.8502 3.88794 9.29102C3.88794 5.73185 7.79531 2.85878 12.6358 2.85878C17.4763 2.85878 21.3836 5.73185 21.3836 9.29102C21.3836 12.8502 17.4763 15.7233 12.6358 15.7233Z" fill="#A8A8A8"/>
</svg>
