<svg width="25" height="25" viewBox="0 0 35 38" fill="none" xmlns="http://www.w3.org/2000/svg">
<path d="M19.1333 38H15.8667C14.7627 38 13.8308 37.1023 13.6996 35.91L13.351 32.9397C12.6554 32.6943 11.9846 32.3918 11.3473 32.0388L9.16854 33.877C8.28479 34.6196 7.04083 34.5341 6.27375 33.6775L3.97688 31.1838C3.19375 30.3588 3.115 29.0082 3.79896 28.0503L5.49208 25.6833C5.16542 24.9913 4.88688 24.263 4.66229 23.5078L1.92063 23.1293C0.826875 22.9837 0 21.9719 0 20.7733V17.2267C0 16.0281 0.826875 15.0163 1.925 14.8738L4.66083 14.4954C4.88688 13.7402 5.16542 13.0118 5.49063 12.3199L3.79896 9.95442C3.11354 8.99492 3.19375 7.64275 3.98417 6.80992L6.28104 4.31617C7.04083 3.46592 8.28625 3.382 9.16708 4.123L11.3458 5.96283C11.9831 5.60975 12.654 5.30733 13.351 5.06192L13.6996 2.08525C13.8308 0.89775 14.7627 0 15.8667 0H19.1333C20.2373 0 21.1692 0.89775 21.3004 2.09L21.649 5.06033C22.346 5.30575 23.0169 5.60817 23.6542 5.96125L25.8329 4.123C26.7181 3.38042 27.9606 3.46592 28.7277 4.32408L31.0246 6.81783C31.8077 7.64275 31.8865 8.99333 31.2025 9.95125L29.5094 12.3183C29.836 13.0103 30.1146 13.7386 30.3392 14.4938L33.0808 14.8722C34.1731 15.0163 35 16.0281 35 17.2267V20.7733C35 21.9719 34.1731 22.9837 33.075 23.1262L30.3392 23.5046C30.1131 24.2598 29.8346 24.9882 29.5094 25.6801L31.2025 28.0456C31.8879 29.0051 31.8077 30.3557 31.0173 31.1885L28.7204 33.6823C27.9606 34.5325 26.7152 34.6196 25.8344 33.8754L23.6542 32.0372C23.0169 32.3918 22.346 32.6942 21.6504 32.9381L21.3019 35.9148C21.1692 37.1023 20.2373 38 19.1333 38ZM11.2729 30.305C11.394 30.305 11.5179 30.3382 11.6287 30.4047C12.4323 30.8924 13.3029 31.2851 14.2158 31.5701C14.4958 31.6572 14.7015 31.9168 14.7379 32.2303L15.1462 35.7137C15.19 36.1111 15.5065 36.4167 15.8667 36.4167H19.1333C19.4935 36.4167 19.81 36.1111 19.8523 35.7216L20.2621 32.2319C20.2985 31.9184 20.5042 31.6588 20.7842 31.5717C21.6971 31.2867 22.5677 30.894 23.3713 30.4063C23.6265 30.2512 23.9444 30.2781 24.1733 30.4728L26.7254 32.6262C27.0185 32.8732 27.4298 32.8526 27.6806 32.5723L29.9921 30.0627C30.256 29.7841 30.2765 29.3376 30.049 29.0177L28.0656 26.2469C27.8863 25.9967 27.8615 25.6532 28.0044 25.3761C28.4535 24.5037 28.8152 23.5584 29.0777 22.5673C29.1579 22.2633 29.3971 22.04 29.6858 22.0004L32.8942 21.5571C33.2602 21.508 33.5417 21.1644 33.5417 20.7733V17.2267C33.5417 16.8356 33.2602 16.492 32.9015 16.4461L29.6873 16.0012C29.3985 15.9616 29.1594 15.7383 29.0792 15.4343C28.8167 14.4432 28.455 13.4979 28.0058 12.6255C27.8629 12.3484 27.8863 12.0048 28.0671 11.7547L30.0504 8.98383C30.2794 8.664 30.259 8.2175 30.0023 7.94833L27.6908 5.43875C27.4356 5.15058 27.0229 5.12842 26.7283 5.377L24.1762 7.53033C23.9444 7.72508 23.6279 7.752 23.3727 7.59683C22.5721 7.10917 21.7015 6.71808 20.7856 6.4315C20.5056 6.34442 20.3 6.08475 20.2635 5.77125L19.8552 2.28792C19.81 1.88892 19.4935 1.58333 19.1333 1.58333H15.8667C15.5065 1.58333 15.19 1.88892 15.1477 2.27842L14.7379 5.76808C14.7015 6.08158 14.4958 6.34125 14.2158 6.42992C13.3 6.71492 12.4294 7.10758 11.6287 7.59367C11.3735 7.75042 11.0571 7.72192 10.8252 7.52875L8.27312 5.37542C7.97854 5.12683 7.56875 5.149 7.31938 5.42767L5.00792 7.93883C4.74396 8.2175 4.72354 8.664 4.95104 8.98383L6.93438 11.7547C7.11375 12.0048 7.13854 12.3484 6.99563 12.6255C6.545 13.4979 6.18479 14.4432 5.92229 15.4343C5.84208 15.7383 5.60292 15.9616 5.31417 16.0012L2.10583 16.4445C1.73979 16.492 1.45833 16.8356 1.45833 17.2267V20.7733C1.45833 21.1644 1.73979 21.508 2.09854 21.5539L5.31271 21.9988C5.60146 22.0384 5.84063 22.2617 5.92083 22.5657C6.18333 23.5568 6.545 24.5021 6.99417 25.3745C7.13708 25.6516 7.11375 25.9952 6.93292 26.2453L4.94958 29.0162C4.72063 29.336 4.74104 29.7825 4.99771 30.0517L7.30917 32.5613C7.56438 32.8478 7.97417 32.87 8.27167 32.623L10.8238 30.4697C10.9565 30.362 11.114 30.305 11.2729 30.305Z" fill="#3367D5"/>
<path d="M17.5 26.9167C13.4794 26.9167 10.2084 23.3653 10.2084 19C10.2084 14.6348 13.4794 11.0834 17.5 11.0834C21.5207 11.0834 24.7917 14.6348 24.7917 19C24.7917 23.3653 21.5207 26.9167 17.5 26.9167ZM17.5 12.6667C14.283 12.6667 11.6667 15.5072 11.6667 19C11.6667 22.4929 14.283 25.3334 17.5 25.3334C20.7171 25.3334 23.3334 22.4929 23.3334 19C23.3334 15.5072 20.7171 12.6667 17.5 12.6667Z" fill="#3367D5"/>
</svg>
